<svg xmlns="http://www.w3.org/2000/svg" viewBox="0 0 135.92 47.43"><defs><style>.cls-1{fill:#232322;}.cls-2{fill:#fff;}</style></defs><g id="Layer_2" data-name="Layer 2"><g id="artwork"><path class="cls-1" d="M123,1.9H11.61l-1,0a14.85,14.85,0,0,0-2.2.19,7.38,7.38,0,0,0-2.08.69A7,7,0,0,0,4.55,4.09,6.76,6.76,0,0,0,3.26,5.86,7.44,7.44,0,0,0,2.57,8a14.6,14.6,0,0,0-.19,2.19c0,.34,0,.68,0,1V36.47c0,.34,0,.67,0,1a14.6,14.6,0,0,0,.19,2.19,7.44,7.44,0,0,0,.69,2.09,6.76,6.76,0,0,0,1.29,1.77,7.24,7.24,0,0,0,1.77,1.29,7.71,7.71,0,0,0,2.08.69,14.85,14.85,0,0,0,2.2.19H125.19a14.49,14.49,0,0,0,2.19-.19,7.66,7.66,0,0,0,2.09-.69,6.88,6.88,0,0,0,1.77-1.29,7,7,0,0,0,1.3-1.77,7.75,7.75,0,0,0,.68-2.09,16.06,16.06,0,0,0,.2-2.19v-1c0-.4,0-.8,0-1.2V12.35c0-.4,0-.8,0-1.2v-1a16.06,16.06,0,0,0-.2-2.19,7.75,7.75,0,0,0-.68-2.09,7,7,0,0,0-1.3-1.77,6.66,6.66,0,0,0-1.77-1.29,7.34,7.34,0,0,0-2.09-.69,14.49,14.49,0,0,0-2.19-.19l-1,0Z"/><path class="cls-1" d="M11.61,44.76l-1,0a13.91,13.91,0,0,1-2-.17A6.42,6.42,0,0,1,6.76,44a5.86,5.86,0,0,1-1.53-1.12,5.49,5.49,0,0,1-1.12-1.53,6.11,6.11,0,0,1-.59-1.81,13.69,13.69,0,0,1-.19-2.06c0-.23,0-1,0-1V11.15s0-.76,0-1a14.73,14.73,0,0,1,.18-2.05,6.6,6.6,0,0,1,.6-1.82A5.82,5.82,0,0,1,5.22,4.77,6.08,6.08,0,0,1,6.76,3.65a6.32,6.32,0,0,1,1.81-.6,14.86,14.86,0,0,1,2-.18H125.18a14.47,14.47,0,0,1,2,.18,6.56,6.56,0,0,1,1.83.6,6.44,6.44,0,0,1,1.53,1.11,6.61,6.61,0,0,1,1.12,1.54,6.39,6.39,0,0,1,.58,1.81,13.39,13.39,0,0,1,.19,2.07c0,.31,0,.64,0,1s0,.8,0,1.2V35.27c0,.4,0,.79,0,1.18s0,.68,0,1a14.42,14.42,0,0,1-.18,2,6.45,6.45,0,0,1-.6,1.83,6,6,0,0,1-1.11,1.51A5.8,5.8,0,0,1,129,44a6.68,6.68,0,0,1-1.83.61,13.7,13.7,0,0,1-2,.17l-1,0H11.61Z"/><path class="cls-2" d="M29.49,24.14a5.42,5.42,0,0,1,2.58-4.55,5.53,5.53,0,0,0-4.37-2.36c-1.84-.2-3.62,1.1-4.56,1.1s-2.4-1.08-3.95-1a5.82,5.82,0,0,0-4.9,3c-2.12,3.66-.54,9.05,1.49,12,1,1.45,2.2,3.07,3.75,3s2.09-1,3.93-1,2.34,1,3.93.94,2.66-1.46,3.64-2.93A12.09,12.09,0,0,0,32.69,29,5.25,5.25,0,0,1,29.49,24.14Z"/><path class="cls-2" d="M26.5,15.28a5.33,5.33,0,0,0,1.22-3.83,5.46,5.46,0,0,0-3.51,1.82A5.08,5.08,0,0,0,23,17,4.5,4.5,0,0,0,26.5,15.28Z"/><path class="cls-2" d="M48.7,31.63H43.51L42.27,35.3h-2.2L45,21.7h2.28l4.91,13.6H49.94Zm-4.65-1.7h4.11l-2-6h-.05Z"/><path class="cls-2" d="M62.78,30.35c0,3.08-1.65,5.06-4.14,5.06a3.36,3.36,0,0,1-3.12-1.74h-.05v4.92h-2V25.39h2V27h0a3.5,3.5,0,0,1,3.15-1.76C61.12,25.28,62.78,27.27,62.78,30.35Zm-2.09,0c0-2-1-3.33-2.62-3.33s-2.61,1.35-2.61,3.33,1,3.33,2.61,3.33S60.69,32.37,60.69,30.35Z"/><path class="cls-2" d="M73.69,30.35c0,3.08-1.65,5.06-4.13,5.06a3.34,3.34,0,0,1-3.12-1.74h0v4.92h-2V25.39h2V27h0a3.52,3.52,0,0,1,3.16-1.76C72,25.28,73.69,27.27,73.69,30.35Zm-2.09,0c0-2-1-3.33-2.62-3.33s-2.6,1.35-2.6,3.33,1.05,3.33,2.6,3.33S71.6,32.37,71.6,30.35Z"/><path class="cls-2" d="M80.91,31.52c.15,1.34,1.46,2.23,3.25,2.23s3-.89,3-2.1c0-1.06-.75-1.69-2.51-2.12l-1.76-.43c-2.5-.6-3.66-1.77-3.66-3.66,0-2.35,2-4,4.95-4s4.85,1.61,4.91,4H87c-.13-1.36-1.25-2.18-2.89-2.18s-2.76.83-2.76,2c0,1,.72,1.53,2.47,2l1.5.37c2.79.66,4,1.78,4,3.77,0,2.55-2,4.14-5.25,4.14-3,0-5.05-1.55-5.19-4Z"/><path class="cls-2" d="M93.65,23v2.35h1.89V27H93.65v5.47c0,.85.38,1.24,1.21,1.24.21,0,.54,0,.67,0v1.6a6.25,6.25,0,0,1-1.13.09c-2,0-2.79-.75-2.79-2.68V27H90.17V25.39h1.44V23Z"/><path class="cls-2" d="M96.63,30.35c0-3.12,1.84-5.08,4.7-5.08s4.71,2,4.71,5.08-1.82,5.08-4.71,5.08S96.63,33.48,96.63,30.35Zm7.33,0c0-2.14-1-3.41-2.63-3.41s-2.63,1.28-2.63,3.41,1,3.4,2.63,3.4S104,32.5,104,30.35Z"/><path class="cls-2" d="M107.72,25.39h1.94v1.69h0a2.38,2.38,0,0,1,2.39-1.8,3,3,0,0,1,.7.08v1.9a3.08,3.08,0,0,0-.92-.12,2.05,2.05,0,0,0-2.12,2.28V35.3h-2Z"/><path class="cls-2" d="M122.17,32.39c-.27,1.8-2,3-4.27,3-2.88,0-4.67-1.94-4.67-5s1.8-5.12,4.59-5.12,4.47,1.88,4.47,4.89v.7h-7V31A2.59,2.59,0,0,0,118,33.79a2.24,2.24,0,0,0,2.29-1.4Zm-6.88-3h5a2.38,2.38,0,0,0-2.43-2.51A2.51,2.51,0,0,0,115.29,29.43Z"/><path class="cls-2" d="M43.79,11.46c1.94,0,3.08,1.2,3.08,3.25S45.74,18,43.79,18H41.43V11.46Zm-1.34,5.62h1.23a2.06,2.06,0,0,0,2.16-2.35,2.07,2.07,0,0,0-2.16-2.34H42.45Z"/><path class="cls-2" d="M48,15.53a2.34,2.34,0,1,1,4.65,0,2.34,2.34,0,1,1-4.65,0Zm3.65,0c0-1.07-.48-1.69-1.33-1.69S49,14.46,49,15.53s.48,1.7,1.32,1.7S51.67,16.61,51.67,15.53Z"/><path class="cls-2" d="M58.85,18h-1l-1-3.63h-.08l-1,3.63h-1l-1.36-4.93h1l.88,3.76h.07l1-3.76h.93l1,3.76h.07l.88-3.76h1Z"/><path class="cls-2" d="M61.35,13.07h.94v.78h.07A1.47,1.47,0,0,1,63.83,13a1.61,1.61,0,0,1,1.71,1.84V18h-1V15.05c0-.79-.34-1.18-1.06-1.18a1.13,1.13,0,0,0-1.18,1.25V18h-1Z"/><path class="cls-2" d="M67.09,11.14h1V18h-1Z"/><path class="cls-2" d="M69.41,15.53a2.34,2.34,0,1,1,4.66,0,2.34,2.34,0,1,1-4.66,0Zm3.66,0c0-1.07-.49-1.69-1.33-1.69s-1.32.62-1.32,1.69.48,1.7,1.32,1.7S73.07,16.61,73.07,15.53Z"/><path class="cls-2" d="M75.09,16.61c0-.89.66-1.4,1.84-1.48l1.33-.07v-.43c0-.52-.34-.81-1-.81s-.92.19-1,.54h-.94c.1-.84.9-1.39,2-1.39s1.93.62,1.93,1.66V18h-.94v-.69h-.07a1.68,1.68,0,0,1-1.48.77A1.49,1.49,0,0,1,75.09,16.61Zm3.17-.43v-.41l-1.2.08c-.68,0-1,.28-1,.71s.39.7.92.7A1.15,1.15,0,0,0,78.26,16.18Z"/><path class="cls-2" d="M80.51,15.53c0-1.56.8-2.54,2-2.54a1.63,1.63,0,0,1,1.51.86h.07V11.14h1V18h-.94v-.78h-.07a1.72,1.72,0,0,1-1.55.86C81.3,18.08,80.51,17.09,80.51,15.53Zm1,0c0,1,.49,1.68,1.31,1.68s1.33-.64,1.33-1.67-.51-1.68-1.33-1.68S81.52,14.49,81.52,15.53Z"/><path class="cls-2" d="M89.14,15.53a2.34,2.34,0,1,1,4.66,0,2.34,2.34,0,1,1-4.66,0Zm3.65,0c0-1.07-.48-1.69-1.32-1.69s-1.32.62-1.32,1.69.48,1.7,1.32,1.7S92.79,16.61,92.79,15.53Z"/><path class="cls-2" d="M95.1,13.07H96v.78h.07A1.47,1.47,0,0,1,97.58,13a1.61,1.61,0,0,1,1.71,1.84V18h-1V15.05c0-.79-.35-1.18-1.07-1.18a1.13,1.13,0,0,0-1.17,1.25V18h-1Z"/><path class="cls-2" d="M104.79,11.84v1.25h1.07v.82h-1.07v2.54c0,.51.21.74.7.74l.37,0V18a4.15,4.15,0,0,1-.53.05c-1.08,0-1.51-.38-1.51-1.33V13.91H103v-.82h.79V11.84Z"/><path class="cls-2" d="M107.19,11.14h1v2.72h.08a1.52,1.52,0,0,1,1.5-.88,1.62,1.62,0,0,1,1.7,1.84V18h-1V15.06c0-.79-.37-1.19-1.06-1.19a1.15,1.15,0,0,0-1.24,1.25V18h-1Z"/><path class="cls-2" d="M117.11,16.67A2,2,0,0,1,115,18.1a2.24,2.24,0,0,1-2.28-2.55A2.28,2.28,0,0,1,115,13c1.37,0,2.2.94,2.2,2.49v.34h-3.49v0A1.32,1.32,0,0,0,115,17.27a1.18,1.18,0,0,0,1.17-.6Zm-3.43-1.59h2.5A1.2,1.2,0,0,0,115,13.8,1.27,1.27,0,0,0,113.68,15.08Z"/><path class="cls-1" d="M10.43,4.24l67.19-.31,33.9-.16,8.47,0c2.44,0,5.15-.35,7.55.13,4.44.89,4.18,7.7,4.41,11.11.38,5.52.36,11.06.27,16.59a50.94,50.94,0,0,1-.26,7c-.36,2.24-1.34,3.61-3.7,3.88-2.66.31-5.42.21-8.09.3l-8.46.25q-8.31.23-16.62.39-33.7.66-67.42.27c-5.46-.06-11,.1-16.44-.32-2-.16-5-.45-6.49-2C3.94,40.45,4,39.1,4,38c-.06-1.41-.1-2.81-.14-4.22q-.22-8.43-.18-16.88c0-2.64,0-5.3.13-7.94.11-2.19.73-4.07,3-4.78a15.3,15.3,0,0,1,5.8-.26c2.34.2,5-3.28,2.65-3.36C12,.48,3.48.15,1.26,4.16-.07,6.55.11,9.47.07,12.1Q0,16.63,0,21.14c0,6,0,12,.37,17.92.17,2.49,1,4.6,3.23,5.92a17.46,17.46,0,0,0,7.36,2c5.93.51,12,.29,17.92.36S41,47.41,47,47.42q18.13,0,36.28-.21t36.57-.83c2.86-.09,5.78,0,8.63-.33a7.31,7.31,0,0,0,5.86-3.33,13.08,13.08,0,0,0,1.4-6.28c.1-2.91.13-5.82.15-8.73a137.56,137.56,0,0,0-.75-17.58c-.52-4.28-2.09-8.93-6.89-9.83-2.69-.5-5.56-.22-8.28-.21l-9.08,0L92.45.22,19.51.56,10.43.6a1.82,1.82,0,0,0,0,3.64Z"/></g></g></svg>