<svg xmlns="http://www.w3.org/2000/svg" viewBox="0 0 151.16 47.83"><defs><style>.cls-1{fill:#232322;}.cls-2{fill:#fff;}</style></defs><g id="Layer_2" data-name="Layer 2"><g id="artwork"><rect class="cls-1" x="2.41" y="2.16" width="146.78" height="43.49" rx="5.44"/><path class="cls-1" d="M143.75,3a4.58,4.58,0,0,1,4.57,4.57V40.22a4.57,4.57,0,0,1-4.57,4.56H7.85a4.57,4.57,0,0,1-4.57-4.56V7.6A4.58,4.58,0,0,1,7.85,3h135.9m0-.87H7.85A5.46,5.46,0,0,0,2.41,7.6V40.22a5.45,5.45,0,0,0,5.44,5.43h135.9a5.45,5.45,0,0,0,5.44-5.43V7.6a5.46,5.46,0,0,0-5.44-5.44Z"/><path class="cls-2" d="M54,13.3a3,3,0,0,1-.81,2.18,3.19,3.19,0,0,1-2.4,1A3.36,3.36,0,0,1,47.37,13a3.36,3.36,0,0,1,3.39-3.4,3.38,3.38,0,0,1,1.34.27,2.7,2.7,0,0,1,1,.73l-.57.57a2.24,2.24,0,0,0-1.79-.77,2.48,2.48,0,0,0-1.78.72A2.51,2.51,0,0,0,48.23,13,2.52,2.52,0,0,0,49,14.92a2.48,2.48,0,0,0,1.78.72,2.44,2.44,0,0,0,1.82-.73,2,2,0,0,0,.55-1.32H50.76v-.78h3.16A2.81,2.81,0,0,1,54,13.3Z"/><path class="cls-2" d="M50.76,16.53A3.45,3.45,0,0,1,47.29,13a3.45,3.45,0,0,1,3.47-3.5,3.53,3.53,0,0,1,1.37.28,2.9,2.9,0,0,1,1.06.75l.05.06-.7.7-.06-.07a2.14,2.14,0,0,0-1.72-.75,2.42,2.42,0,0,0-1.72.7A2.46,2.46,0,0,0,48.31,13a2.46,2.46,0,0,0,2.45,2.52,2.38,2.38,0,0,0,1.76-.71A1.9,1.9,0,0,0,53,13.68H50.68v-1H54l0,.07a2.92,2.92,0,0,1,0,.51,3.07,3.07,0,0,1-.83,2.24A3.3,3.3,0,0,1,50.76,16.53Zm0-6.82A3.28,3.28,0,0,0,47.46,13a3.28,3.28,0,0,0,3.3,3.32,3.12,3.12,0,0,0,2.34-.94,2.89,2.89,0,0,0,.78-2.12,2.83,2.83,0,0,0,0-.41h-3v.62h2.37v.09A2.13,2.13,0,0,1,52.64,15a2.56,2.56,0,0,1-1.88.76A2.6,2.6,0,0,1,48.92,15,2.58,2.58,0,0,1,48.14,13a2.61,2.61,0,0,1,2.62-2.7,2.29,2.29,0,0,1,1.79.74l.45-.45a2.55,2.55,0,0,0-.93-.65A3.27,3.27,0,0,0,50.76,9.71Z"/><path class="cls-2" d="M59,10.57H56v2.07h2.68v.79H56V15.5h3v.8H55.17V9.77H59Z"/><path class="cls-2" d="M59.06,16.38h-4V9.69h4v1h-3v1.9h2.68v.95H56.09v1.9h3Zm-3.8-.17h3.63v-.63h-3V13.34H58.6v-.61H55.92V10.49h3V9.86H55.26Z"/><path class="cls-2" d="M62.51,16.3h-.84V10.57H59.85v-.8h4.49v.8H62.51Z"/><path class="cls-2" d="M62.6,16.38h-1V10.66H59.77v-1h4.65v1H62.6Zm-.84-.17h.67V10.49h1.82V9.86H59.94v.63h1.82Z"/><path class="cls-2" d="M67.58,16.3V9.77h.84V16.3Z"/><path class="cls-2" d="M68.5,16.38h-1V9.69h1Zm-.84-.17h.67V9.86h-.67Z"/><path class="cls-2" d="M72.13,16.3H71.3V10.57H69.47v-.8H74v.8H72.13Z"/><path class="cls-2" d="M72.22,16.38h-1V10.66H69.39v-1H74v1H72.22Zm-.84-.17h.67V10.49h1.82V9.86H69.56v.63h1.82Z"/><path class="cls-2" d="M82.44,15.45a3.38,3.38,0,0,1-4.78,0,3.33,3.33,0,0,1-1-2.42,3.33,3.33,0,0,1,1-2.41,3.38,3.38,0,0,1,4.78,0,3.34,3.34,0,0,1,1,2.41A3.33,3.33,0,0,1,82.44,15.45Zm-4.16-.54a2.51,2.51,0,0,0,3.54,0A2.55,2.55,0,0,0,82.55,13a2.54,2.54,0,0,0-.73-1.87,2.51,2.51,0,0,0-3.54,0A2.58,2.58,0,0,0,77.55,13,2.59,2.59,0,0,0,78.28,14.91Z"/><path class="cls-2" d="M80.05,16.53a3.27,3.27,0,0,1-2.45-1,3.39,3.39,0,0,1-1-2.47,3.4,3.4,0,0,1,1-2.48,3.45,3.45,0,0,1,4.9,0,3.43,3.43,0,0,1,1,2.48,3.39,3.39,0,0,1-1,2.47h0A3.27,3.27,0,0,1,80.05,16.53Zm0-6.82a3.12,3.12,0,0,0-2.33,1A3.26,3.26,0,0,0,76.78,13a3.25,3.25,0,0,0,.94,2.35,3.28,3.28,0,0,0,4.66,0h0a3.42,3.42,0,0,0,0-4.71A3.15,3.15,0,0,0,80.05,9.71Zm0,6A2.5,2.5,0,0,1,78.22,15h0A2.65,2.65,0,0,1,77.47,13a2.66,2.66,0,0,1,.75-1.94,2.58,2.58,0,0,1,3.66,0A2.66,2.66,0,0,1,82.63,13,2.65,2.65,0,0,1,81.88,15,2.48,2.48,0,0,1,80.05,15.73Zm-1.71-.88a2.41,2.41,0,0,0,3.42,0,2.46,2.46,0,0,0,.7-1.81,2.46,2.46,0,0,0-.7-1.82,2.41,2.41,0,0,0-3.42,0,2.5,2.5,0,0,0-.7,1.82,2.5,2.5,0,0,0,.7,1.81Z"/><path class="cls-2" d="M84.58,16.3V9.77h1l3.17,5.08h0l0-1.26V9.77h.84V16.3h-.88L85.42,11h0l0,1.25V16.3Z"/><path class="cls-2" d="M89.69,16.38h-1l-3.22-5.15,0,1v4.15h-1V9.69h1.16l3.06,4.91,0-1V9.69h1Zm-.91-.17h.74V9.86h-.66v3.73l0,1.34h-.17L85.55,9.86h-.88v6.35h.66v-4l0-1.34h.18Z"/><path class="cls-2" d="M76.49,25.81a4.63,4.63,0,1,0,4.64,4.63A4.56,4.56,0,0,0,76.49,25.81Zm0,7.43a2.81,2.81,0,1,1,2.61-2.8A2.68,2.68,0,0,1,76.49,33.24ZM66.37,25.81A4.63,4.63,0,1,0,71,30.44,4.57,4.57,0,0,0,66.37,25.81Zm0,7.43A2.81,2.81,0,1,1,69,30.44,2.67,2.67,0,0,1,66.37,33.24Zm-12.05-6v2H59A4.08,4.08,0,0,1,58,31.66a4.79,4.79,0,0,1-3.63,1.44,5.22,5.22,0,0,1,0-10.44,5,5,0,0,1,3.54,1.4l1.38-1.38a6.84,6.84,0,0,0-4.92-2,7.18,7.18,0,1,0,0,14.36,6.57,6.57,0,0,0,5-2A6.48,6.48,0,0,0,61,28.46a6.38,6.38,0,0,0-.11-1.23Zm49.26,1.52a4.3,4.3,0,0,0-4-2.94,4.4,4.4,0,0,0-4.36,4.63,4.52,4.52,0,0,0,4.59,4.62A4.59,4.59,0,0,0,103.7,33l-1.57-1a2.66,2.66,0,0,1-2.28,1.28,2.35,2.35,0,0,1-2.24-1.4l6.18-2.56Zm-6.3,1.55a2.53,2.53,0,0,1,2.41-2.7,1.79,1.79,0,0,1,1.72,1Zm-5,4.48h2V21.19h-2Zm-3.33-7.93h-.07a3.17,3.17,0,0,0-2.43-1,4.63,4.63,0,0,0,0,9.25A3.14,3.14,0,0,0,88.85,34h.07v.66c0,1.77-1,2.72-2.47,2.72a2.56,2.56,0,0,1-2.33-1.65l-1.77.74a4.42,4.42,0,0,0,4.1,2.73c2.38,0,4.4-1.4,4.4-4.82v-8.3H88.92Zm-2.33,6.39a2.82,2.82,0,0,1,0-5.61,2.61,2.61,0,0,1,2.47,2.82A2.59,2.59,0,0,1,86.59,33.24Zm26.51-12h-4.86V34.78h2V29.63h2.83a4.23,4.23,0,1,0,0-8.44Zm.05,6.55h-2.88V23.08h2.88a2.33,2.33,0,1,1,0,4.66Zm12.54-1.95a3.8,3.8,0,0,0-3.62,2.08l1.8.75a1.92,1.92,0,0,1,1.85-1,2,2,0,0,1,2.14,1.75v.14a4.53,4.53,0,0,0-2.12-.52c-1.94,0-3.92,1.06-3.92,3.06a3.15,3.15,0,0,0,3.38,3,2.88,2.88,0,0,0,2.59-1.33h.07v1h2V29.55C129.82,27.13,128,25.79,125.69,25.79Zm-.25,7.45c-.66,0-1.59-.34-1.59-1.16,0-1,1.16-1.45,2.15-1.45a3.64,3.64,0,0,1,1.86.45A2.47,2.47,0,0,1,125.44,33.24ZM137,26.08,134.62,32h-.07l-2.41-5.9H130l3.62,8.24-2.07,4.58h2.12l5.58-12.82Zm-18.27,8.7h2V21.19h-2Z"/><path class="cls-2" d="M13.8,11.89v24a2.2,2.2,0,0,0,.12.76L26.69,23.91,13.92,11.14A2.15,2.15,0,0,0,13.8,11.89Z"/><path class="cls-2" d="M37.8,23.91c0-.39-.32-.79-.87-1.1l-5.05-2.87-4,4,4,4L36.93,25C37.48,24.69,37.8,24.29,37.8,23.91Z"/><path class="cls-2" d="M27.3,24.29,14.16,37.43a1.66,1.66,0,0,0,1.72-.15l15.56-8.84Z"/><path class="cls-2" d="M31,19.44,15.75,10.77a2,2,0,0,0-.95-.29h-.15L27.3,23.14Z"/><path class="cls-1" d="M18.85,3l74-.28,36.87-.14,9.36,0c1.41,0,2.82,0,4.23,0s3-.06,3.81,1.14c.7,1,.67,2.5.77,3.67.14,1.58.25,3.17.35,4.76q.3,4.62.4,9.26a137.07,137.07,0,0,1-.3,17.9c-.31,2.78-2.12,3.93-4.68,4.49a59.56,59.56,0,0,1-8.83,1c-12.18.8-24.48.5-36.67.56-24.72.12-49.44,0-74.15-.49l-9.38-.21a55,55,0,0,1-8.12-.34c-2.88-.5-4.06-2.23-4.11-5.09s.13-5.77.22-8.64q.27-9.1.71-18.21c.07-1.47.13-2.94.22-4.4s.18-2.83,1.23-3.75A7.16,7.16,0,0,1,8.27,3.05c1.62-.3,3.25-.51,4.89-.65a55.57,55.57,0,0,1,8.75,0c1.56.13,8.16-1.73,6.61-1.85a53.85,53.85,0,0,0-9.67,0C16.25.86,6.53.46,4.19,1.73s-2.83,3.46-3,5.79C.94,10.72.85,14,.71,17.15Q.29,27,0,36.86C0,39.31-.22,42.08,1.35,44.15c1.37,1.8,3.56,2.44,5.72,2.67,3,.33,6.09.24,9.11.31l10,.21q10,.18,20,.3,19.83.22,39.65.19c13.29,0,26.58-.06,39.87-.27,6.18-.09,12.62-.12,18.68-1.44,2.12-.46,4.31-1.39,5.47-3.33,1.33-2.21,1.11-5.18,1.2-7.66q.38-9.86-.11-19.71c-.16-3.28-.31-6.58-.71-9.83-.27-2.19-1.13-4.23-3.34-5-2.62-.93-5.91-.42-8.63-.41l-10,0-20,.07L28.52.57l-9.67,0a1.21,1.21,0,0,0,0,2.42Z"/></g></g></svg>